<svg width="60" height="45" viewBox="0 0 60 45" fill="none" xmlns="http://www.w3.org/2000/svg">
<ellipse cx="30.7354" cy="22.1833" rx="22.3235" ry="22" fill="#E7EEF6"/>
<path d="M48.9498 32.0798V14.0009C48.9498 13.1961 48.2871 12.5377 47.4772 12.5377H23.9616C23.1517 12.5377 22.489 13.1961 22.489 14.0009V32.0889H48.9498V32.0798Z" fill="#7991BE"/>
<path d="M51.4805 12.5377H46.9799C47.7898 12.5377 48.4525 13.1961 48.4525 14.0009V32.0889H52.9531V14.0009C52.9531 13.187 52.2996 12.5377 51.4805 12.5377Z" fill="#606483"/>
<path d="M48.9492 15.3636H26.3079C25.7649 15.3636 25.3323 15.7934 25.3323 16.333V31.193H48.9492V15.3636Z" fill="white"/>
<path d="M50.1093 31.1839V16.333C50.1093 15.7934 49.6675 15.3636 49.1337 15.3636H48.4526V31.193H50.1093V31.1839Z" fill="#F3F6F8"/>
<path d="M51.1493 32.9028V31.1836H20.9425C20.4547 31.1836 20.059 31.5768 20.059 32.0615C20.059 33.799 21.4764 35.2072 23.2251 35.2072H48.8299C50.1092 35.2164 51.1493 34.183 51.1493 32.9028Z" fill="#7991BE"/>
<path d="M54.4994 31.1836H50.8823V32.9028C50.8823 34.1739 49.8423 35.2072 48.563 35.2072H52.2169C53.9656 35.2072 55.383 33.799 55.383 32.0615C55.383 31.5768 54.9872 31.1836 54.4994 31.1836Z" fill="#606483"/>
<path d="M32.3368 31.1836C32.3368 32.2992 33.248 33.1954 34.3617 33.1954H41.0712C42.1941 33.1954 43.096 32.2901 43.096 31.1836H32.3368Z" fill="#606483"/>
<path d="M40.3193 16.406H38.3424C37.3631 16.406 36.5669 17.1907 36.5669 18.1558V19.8424L36.9238 20.095H40.4749V16.6676L40.3193 16.406Z" fill="#F9CC5D"/>
<path d="M44.2088 25.5156L41.6737 24.785H37.7108L35.1756 25.5156C34.2696 25.7772 33.6472 26.598 33.6472 27.536V31.0897H45.7464V27.536C45.7372 26.598 45.1149 25.7772 44.2088 25.5156Z" fill="#E7EEF6"/>
<path d="M44.2089 25.5156L41.6737 24.785H39.706L39.7243 25.7772L41.7103 26.3815C42.6164 26.6431 43.2387 27.4638 43.2387 28.4019V31.0987H45.7373V27.545C45.7373 26.598 45.1149 25.7772 44.2089 25.5156Z" fill="#D8DEEB"/>
<path d="M40.0808 27.1935H39.3121L38.6165 31.0719V31.0809H40.7764L40.0808 27.1935Z" fill="#606483"/>
<path d="M41.0884 24.9475V22.7467H38.3062V24.9475C38.3062 25.7051 39.6973 25.7682 39.6973 25.7682C39.6973 25.7682 41.0884 25.7051 41.0884 24.9475Z" fill="#FFDDCE"/>
<path d="M44.0258 31.0809V29.8632C44.0258 29.7009 43.8977 29.5746 43.7329 29.5746C43.5682 29.5746 43.44 29.7009 43.44 29.8632V31.0809H44.0258Z" fill="#B9CBEA"/>
<path d="M42.049 17.4251H42.0215C41.8751 17.4251 41.7653 17.3078 41.7653 17.1726C41.7653 16.7577 41.4175 16.4149 40.9965 16.4149H40.3192V20.1039H42.4608L42.8177 19.8514V18.1918C42.8177 17.7678 42.47 17.4251 42.049 17.4251Z" fill="#F7BD3C"/>
<path d="M37.7565 24.6319L37.363 24.8032C37.1342 24.9025 37.0792 25.2001 37.2531 25.3715L38.3514 26.4538C38.4887 26.5891 38.7083 26.5981 38.8548 26.4719L39.7151 25.7593L38.2507 24.677C38.1134 24.5868 37.9212 24.5597 37.7565 24.6319Z" fill="#B9CBEA"/>
<path d="M41.1242 24.695L39.7147 25.7683L40.5201 26.4538C40.6666 26.58 40.8862 26.571 41.0326 26.4357L42.1309 25.3804C42.314 25.2091 42.259 24.9114 42.0302 24.8122L41.6275 24.6318C41.4628 24.5597 41.2706 24.5867 41.1242 24.695Z" fill="#B9CBEA"/>
<path d="M39.724 25.7682L38.8729 26.4627L39.303 27.1933H40.0718L40.502 26.4266L39.724 25.7682Z" fill="#606483"/>
<path d="M35.9539 31.0809V29.8632C35.9539 29.7009 35.8257 29.5746 35.661 29.5746C35.4962 29.5746 35.3681 29.7009 35.3681 29.8632V31.0809H35.9539Z" fill="#B9CBEA"/>
<path d="M40.4749 21.3757V18.6338C39.7793 18.76 39.0563 18.7149 38.379 18.4985C38.0129 18.3812 37.6377 18.6518 37.6377 19.0306V19.3192C37.6377 19.6079 37.3997 19.8514 37.0977 19.8514H36.5669V20.7173C36.5669 20.9337 36.7499 21.1141 36.9696 21.1141C37.0428 21.1141 37.0977 21.1682 37.0977 21.2404C37.1709 22.4129 38.0495 23.369 39.1936 23.5855C39.9532 23.1165 40.4566 22.3047 40.4749 21.3757Z" fill="#FFDDCE"/>
<path d="M42.2866 19.8424C41.9937 19.8424 41.7466 19.6079 41.7466 19.3102V19.0216C41.7466 18.6428 41.3714 18.3722 41.0053 18.4894C40.7765 18.5616 40.5477 18.6157 40.3189 18.6518V21.3306C40.3006 22.2686 39.7697 23.0894 38.9918 23.5223C39.2115 23.5855 39.4494 23.6125 39.6874 23.6125C41.0602 23.6125 42.1859 22.5572 42.2774 21.2224C42.2774 21.1502 42.3415 21.0961 42.4056 21.0961C42.6252 21.0961 42.8083 20.9157 42.8083 20.6992V19.8424H42.2866Z" fill="#FFCBBE"/>
<path d="M39.4234 10.5991H38.2545V12.5286H39.4234V10.5991Z" fill="#606483"/>
<path d="M41.4391 9.42887C41.4391 10.8554 40.2702 12.0168 38.8344 12.0168C37.3986 12.0168 36.2298 10.8554 36.2298 9.42887C36.2298 8.00231 37.3986 6.84094 38.8344 6.84094C40.2794 6.84094 41.4391 7.99317 41.4391 9.42887Z" fill="#B6C2DA"/>
<path d="M40.0495 9.4284C40.0495 10.096 39.5064 10.6355 38.8346 10.6355C38.1627 10.6355 37.6197 10.096 37.6197 9.4284C37.6197 8.76085 38.1627 8.22131 38.8346 8.22131C39.5064 8.22131 40.0495 8.76085 40.0495 9.4284Z" fill="#606483"/>
<path d="M39.4142 9.42853C39.4142 9.74859 39.1565 10.0046 38.8344 10.0046C38.5123 10.0046 38.2545 9.74859 38.2545 9.42853C38.2545 9.10847 38.5123 8.85242 38.8344 8.85242C39.1565 8.85242 39.4142 9.10847 39.4142 9.42853Z" fill="#1E1D2E"/>
<path opacity="0.7" d="M39.487 8.98962C39.487 9.1085 39.3952 9.19995 39.2758 9.19995C39.1565 9.19995 39.0646 9.1085 39.0646 8.98962C39.0646 8.87074 39.1565 8.7793 39.2758 8.7793C39.3952 8.7793 39.487 8.87074 39.487 8.98962Z" fill="white"/>
<path opacity="0.1" d="M41.439 9.42875C41.439 8.00219 40.2702 6.84082 38.8344 6.84082V12.0167C40.2794 12.0167 41.439 10.8553 41.439 9.42875Z" fill="#D8DEEB"/>
<path d="M26.2582 8.11621H22.037C20.2327 8.11621 18.7677 9.55997 18.7677 11.3381V14.4459L21.5156 19.5194L26.6141 20.1557V9.02162L26.2582 8.11621Z" fill="#CB7B4F"/>
<path d="M28.8827 9.99228H28.8331C28.5682 9.99228 28.353 9.7802 28.353 9.51918C28.353 8.74428 27.7157 8.11621 26.9294 8.11621H26.2507V20.0904L28.3033 19.2013L30.2898 14.4459V11.3871C30.298 10.6122 29.6607 9.99228 28.8827 9.99228Z" fill="#B65D37"/>
<path d="M33.5496 29.2178C33.5496 27.6925 32.5482 26.3466 31.0749 25.8898L27.0863 23.9485L25.5634 23.3612L24.5371 23.3286L19.7779 23.4917L15.4244 24.8539C13.9428 25.3107 12.9413 26.6647 12.9413 28.1819V39.9691C12.9413 40.6787 13.5207 41.2497 14.2408 41.2497H33.5496V29.2178Z" fill="#FFA04F"/>
<path d="M33.6496 24.854L29.296 23.4918L25.2487 23.3531L23.5685 23.0269L30.5686 26.1428C32.0419 26.5995 33.0433 27.9536 33.0433 29.4707V41.2756H34.8249C35.545 41.2756 36.1244 40.7047 36.1244 39.995V28.182C36.1244 26.6648 35.1229 25.3108 33.6496 24.854Z" fill="#EF8B35"/>
<path d="M27.2021 23.2388V19.9189H21.8636V23.2388L24.5287 23.3285L27.2021 23.2388Z" fill="#FFCBBE"/>
<path d="M27.8804 18.9894C26.912 18.9894 22.2688 19.2015 21.8798 18.916H21.9129C21.2342 18.6957 19.7526 14.446 19.7526 14.446H18.7677V16.0366C18.7677 16.4445 19.0988 16.7707 19.5126 16.7707C19.6451 16.7707 19.7526 16.8686 19.7609 16.9991C19.8934 19.1117 21.4411 20.8491 23.4772 21.2978C25.2898 20.6044 27.8804 18.9894 27.8804 18.9894Z" fill="#FFCBBE"/>
<path d="M29.321 14.446C29.321 14.446 28.4189 18.8833 27.3925 19.022C27.136 19.0546 25.3482 19.1444 25.1164 19.2015C25.1164 19.2015 24.8764 20.5555 23.0059 21.1754C23.4859 21.3385 23.9991 21.4201 24.5371 21.4201C27.078 21.4201 29.1555 19.4706 29.3127 17.0073C29.321 16.8768 29.4286 16.7789 29.561 16.7789C29.9749 16.7789 30.306 16.4526 30.306 16.0448V14.446H29.321Z" fill="#FFCBBE"/>
<path d="M24.5284 25.2618L23.1048 26.469C22.7572 26.7708 22.2192 26.7137 21.9378 26.3467L19.761 23.4836L20.5473 22.8066C20.928 22.4803 21.5074 22.4885 21.8799 22.8311L24.5284 25.2618Z" fill="#FFA04F"/>
<path d="M24.6362 21.5178L24.4707 23.141C24.4872 23.5978 25.1246 23.9486 25.588 23.8996L29.1967 23.5244L29.1636 22.4966C29.1471 21.9909 28.7498 21.5831 28.2449 21.5504L24.6362 21.5178Z" fill="#EF8B35"/>
<path d="M21.0357 21.5423C20.5308 21.5831 20.1253 21.9909 20.117 22.4885L20.0839 23.5162L23.6926 23.8914C24.156 23.9404 24.6609 23.5896 24.6775 23.1329L24.6444 21.5096L21.0357 21.5423Z" fill="#FFA04F"/>
<path d="M30.5156 33.7967C30.5156 33.5436 30.7207 33.3385 30.9738 33.3385V33.3385C31.2268 33.3385 31.4319 33.5436 31.4319 33.7967V41.2497H30.5156V33.7967Z" fill="#EF8B35"/>
<path d="M16.8424 33.8225C16.8424 33.5695 17.0475 33.3644 17.3006 33.3644V33.3644C17.5536 33.3644 17.7587 33.5695 17.7587 33.8225V41.2756H16.8424V33.8225Z" fill="#EF8B35"/>
<path d="M47.9746 18.8594C48.5356 18.8594 48.9905 18.4112 48.9905 17.8582C48.9905 17.3053 48.5356 16.8571 47.9746 16.8571C47.4135 16.8571 46.9587 17.3053 46.9587 17.8582C46.9587 18.4112 47.4135 18.8594 47.9746 18.8594Z" fill="#DD636E"/>
</svg>
