<svg width="24" height="24" viewBox="0 0 24 24" fill="none" xmlns="http://www.w3.org/2000/svg">
<path d="M20 7.00024H4C2.89543 7.00024 2 7.89567 2 9.00024V19.0002C2 20.1048 2.89543 21.0002 4 21.0002H20C21.1046 21.0002 22 20.1048 22 19.0002V9.00024C22 7.89567 21.1046 7.00024 20 7.00024Z" stroke="#FFA438" stroke-width="1.5" stroke-linecap="round" stroke-linejoin="round"/>
<path d="M16 7.28693V5.00024C16 4.46981 15.7893 3.9611 15.4142 3.58603C15.0391 3.21096 14.5304 3.00024 14 3.00024H10C9.46957 3.00024 8.96086 3.21096 8.58579 3.58603C8.21071 3.9611 8 4.46981 8 5.00024V7.28693" stroke="#FFA438" stroke-width="1.5" stroke-linejoin="round"/>
<path d="M20.641 7.28689V9.94522C20.641 10.5619 20.1858 11.1532 19.3755 11.5893C18.5653 12.0253 17.4664 12.2703 16.3205 12.2703H7.67959C6.53373 12.2703 5.43481 12.0253 4.62457 11.5893C3.81432 11.1532 3.35913 10.5619 3.35913 9.94522V7.28689" stroke="#FFA438" stroke-width="1.5" stroke-linejoin="round"/>
<path d="M10.4375 14.0002H13.5625" stroke="#FFA438" stroke-width="1.5" stroke-linecap="round"/>
</svg>
