<svg width="14" height="14" viewBox="0 0 14 14" fill="none" xmlns="http://www.w3.org/2000/svg">
<path d="M11.9 2.8H9.8V2.1C9.8 1.54305 9.57875 1.0089 9.18492 0.615076C8.7911 0.221249 8.25695 0 7.7 0H6.3C5.74305 0 5.2089 0.221249 4.81508 0.615076C4.42125 1.0089 4.2 1.54305 4.2 2.1V2.8H2.1C1.54305 2.8 1.0089 3.02125 0.615076 3.41508C0.221249 3.8089 0 4.34305 0 4.9V11.2C0 11.757 0.221249 12.2911 0.615076 12.6849C1.0089 13.0788 1.54305 13.3 2.1 13.3H11.9C12.457 13.3 12.9911 13.0788 13.3849 12.6849C13.7788 12.2911 14 11.757 14 11.2V4.9C14 4.34305 13.7788 3.8089 13.3849 3.41508C12.9911 3.02125 12.457 2.8 11.9 2.8ZM5.6 2.1C5.6 1.91435 5.67375 1.7363 5.80503 1.60503C5.9363 1.47375 6.11435 1.4 6.3 1.4H7.7C7.88565 1.4 8.0637 1.47375 8.19497 1.60503C8.32625 1.7363 8.4 1.91435 8.4 2.1V2.8H5.6V2.1ZM12.6 11.2C12.6 11.3857 12.5263 11.5637 12.395 11.695C12.2637 11.8263 12.0857 11.9 11.9 11.9H2.1C1.91435 11.9 1.7363 11.8263 1.60503 11.695C1.47375 11.5637 1.4 11.3857 1.4 11.2V7.665H3.5V8.4C3.5 8.58565 3.57375 8.7637 3.70503 8.89497C3.8363 9.02625 4.01435 9.1 4.2 9.1C4.38565 9.1 4.5637 9.02625 4.69497 8.89497C4.82625 8.7637 4.9 8.58565 4.9 8.4V7.665H9.1V8.4C9.1 8.58565 9.17375 8.7637 9.30503 8.89497C9.4363 9.02625 9.61435 9.1 9.8 9.1C9.98565 9.1 10.1637 9.02625 10.295 8.89497C10.4263 8.7637 10.5 8.58565 10.5 8.4V7.665H12.6V11.2ZM12.6 6.3H1.4V4.9C1.4 4.71435 1.47375 4.5363 1.60503 4.40503C1.7363 4.27375 1.91435 4.2 2.1 4.2H11.9C12.0857 4.2 12.2637 4.27375 12.395 4.40503C12.5263 4.5363 12.6 4.71435 12.6 4.9V6.3Z" fill="#C4CDDF"/>
</svg>
