<svg width="24" height="24" viewBox="0 0 24 24" fill="none" xmlns="http://www.w3.org/2000/svg">
<path fill-rule="evenodd" clip-rule="evenodd" d="M8.948 4.44276C8.74831 4.20494 8.40431 4.14977 8.14027 4.31322L6.6678 5.22477C5.51241 5.94002 4.97287 7.17819 5.34187 8.31528C5.85991 9.91161 6.81772 12.1267 8.56594 14.4829C10.3167 16.8426 12.3553 18.4256 13.9235 19.4061C15.0335 20.1001 16.4952 19.7975 17.4665 18.6854L18.6224 17.362C18.8325 17.1214 18.8275 16.7611 18.6107 16.5265L16.727 14.4885C16.537 14.2829 16.2333 14.2287 15.9839 14.356L14.1417 15.2959C13.9159 15.4111 13.6494 15.415 13.4203 15.3065C12.366 14.8071 11.4505 13.8326 10.7602 12.9228C10.056 11.9947 9.5137 11.0361 9.22674 10.4519C9.09233 10.1783 9.12136 9.85262 9.30204 9.60708L10.8706 7.47551C11.0415 7.24317 11.0313 6.92402 10.8458 6.7031L8.948 4.44276ZM7.27978 2.92321C8.23438 2.33226 9.47807 2.53172 10.2 3.39155L12.0978 5.65188C12.7684 6.45058 12.8054 7.60445 12.1873 8.44443L10.9206 10.1658C11.1931 10.6633 11.5879 11.3091 12.0625 11.9347C12.6032 12.6473 13.1985 13.2676 13.7854 13.6424L15.2409 12.8997C16.1427 12.4397 17.2404 12.6354 17.9276 13.3789L19.8112 15.4169C20.5951 16.265 20.6134 17.5676 19.8537 18.4374L18.6978 19.7608C17.3123 21.3471 14.9848 21.9976 13.0569 20.7923C11.3638 19.7338 9.15535 18.021 7.25303 15.457C5.38239 12.9358 4.35019 10.5557 3.7869 8.81989C3.13697 6.81712 4.15593 4.85705 5.8073 3.83476L7.27978 2.92321Z" fill="#FFA438"/>
</svg>
