<svg width="24" height="24" viewBox="0 0 24 24" fill="none" xmlns="http://www.w3.org/2000/svg">
<path d="M17.787 14.8738V7.67167M6.12567 14.4303V7.67329M2.56149 21.5525L8.14401 16.4504M2.56149 21.5525C2.9222 21.8552 3.86169 21.8028 4.01192 21.7923C4.02595 21.7913 4.03936 21.7907 4.05343 21.7907H20.2497C20.2633 21.7907 20.2768 21.7902 20.2903 21.7888C20.4176 21.7751 21.1115 21.6829 21.3518 21.2809M2.56149 21.5525C2.34759 21.3764 2.39457 20.2003 2.40056 20.068C2.40094 20.0596 2.40113 20.0517 2.40113 20.0432V12.5211C2.40113 12.5211 2.40113 12.5211 2.40113 12.5211C2.40113 12.5211 2.40113 11.8156 2.40113 11.5097M21.3518 21.2809C19.1606 19.3685 15.7232 16.4504 15.7232 16.4504M21.3518 21.2809C21.6495 20.7729 21.6088 19.8216 21.6012 19.6853C21.6006 19.6739 21.6003 19.6632 21.6003 19.6518V12.2479C21.6003 12.2479 21.6003 12.2479 21.6003 12.2479C21.6003 12.2479 21.6003 11.8208 21.4352 11.5097M21.4352 11.5097L15.7232 16.4504M21.4352 11.5097C21.2358 11.1338 20.92 10.7606 20.8561 10.6866C20.8484 10.6776 20.8404 10.6692 20.8319 10.6609L17.787 7.67167M2.40113 11.5097L8.14401 16.4504M2.40113 11.5097C2.40113 11.183 3.10058 10.5327 3.15201 10.4854C3.15419 10.4833 3.15606 10.4816 3.15822 10.4796L6.12567 7.67329M6.12567 7.67329V5.57465C6.12567 5.2985 6.34953 5.07465 6.62567 5.07465H8.71223M8.71223 5.07465L11.5687 2.63252C11.7541 2.47397 12.0269 2.47241 12.2141 2.62884L15.1417 5.07465M8.71223 5.07465H15.1417M17.787 7.67167V5.57465C17.787 5.29851 17.5632 5.07465 17.287 5.07465H15.1417M8.14401 16.4504L11.5533 13.2801C11.7436 13.1032 12.0377 13.1015 12.23 13.2762L15.7232 16.4504" stroke="#FFA438" stroke-width="1.5"/>
</svg>
