<svg width="23" height="21" viewBox="0 0 23 21" fill="none" xmlns="http://www.w3.org/2000/svg">
    <path d="M10.7476 3.84552L11.5 4.70487L12.2524 3.84552C13.2474 2.70902 14.7857 1.9823 16.3801 1.9823C19.1943 1.9823 21.3446 4.11313 21.3446 6.7836C21.3446 8.43947 20.5882 10.0249 19.0376 11.8688C17.4764 13.7252 15.224 15.7142 12.411 18.1952L12.4096 18.1965L11.4975 19.0041L10.5898 18.2065C10.5894 18.2062 10.589 18.2058 10.5886 18.2055C7.77591 15.7194 5.52384 13.7281 3.96267 11.8703C2.41185 10.0249 1.6554 8.43949 1.6554 6.7836C1.6554 4.11313 3.80574 1.9823 6.61993 1.9823C8.21433 1.9823 9.75259 2.70902 10.7476 3.84552Z" stroke="#606483" stroke-width="2" />
</svg>