<svg width="24" height="24" viewBox="0 0 24 24" fill="none" xmlns="http://www.w3.org/2000/svg">
<path d="M20.6688 11.7782L20.6689 11.7782L21.1997 11.9381L21.3295 11.9814C21.6875 12.1137 22.0032 12.3399 22.2436 12.6364C22.4854 12.9346 22.6419 13.2929 22.6964 13.6729L22.6965 13.673C22.8966 15.0664 22.4564 16.7627 21.2824 18.7962C20.1113 20.8244 18.8651 22.0527 17.561 22.5785C17.1835 22.7306 16.7703 22.7711 16.3704 22.6952C15.9706 22.6194 15.6009 22.4303 15.3054 22.1504L14.9069 21.7725L14.8313 21.6944C14.6845 21.5255 14.5986 21.3122 14.5874 21.0885C14.5761 20.8616 14.6423 20.6376 14.7753 20.4533C14.7753 20.4533 14.7753 20.4533 14.7753 20.4533L15.7859 19.0532L15.8378 18.9882C15.9163 18.9023 16.0172 18.8399 16.1293 18.8082C16.2448 18.7755 16.3672 18.7768 16.4819 18.8119C16.482 18.8119 16.482 18.8119 16.482 18.8119L18.0202 19.2821L18.0466 19.2902L18.0737 19.2953L18.1134 19.3028L18.1594 19.3115H18.2061H18.2384H18.2658L18.2931 19.3084C18.4691 19.2891 18.6128 19.201 18.7065 19.132C18.8113 19.0549 18.915 18.9552 19.0164 18.8416C19.2199 18.6135 19.4473 18.2912 19.6876 17.875L19.6877 17.8749C19.9534 17.4146 20.1289 17.0244 20.217 16.7129C20.2606 16.5586 20.2895 16.4007 20.2859 16.2511C20.2827 16.1134 20.2491 15.8957 20.0741 15.729L20.0741 15.729L20.0703 15.7254L19.2945 15.0024L19.2086 14.9165C19.0295 14.7199 18.9114 14.4754 18.8687 14.2128C18.8255 13.9471 18.8614 13.6746 18.9718 13.4291C18.9718 13.4291 18.9718 13.4291 18.9718 13.4291L19.4644 12.3346L19.5102 12.2424C19.6212 12.0467 19.7949 11.894 20.0035 11.8092C20.2152 11.7232 20.45 11.7122 20.6688 11.7782Z" stroke="#FFA438"/>
<path d="M12.274 18.9074H6.35474C6.13382 18.9074 5.95474 18.7283 5.95474 18.5074V16.3131C5.95474 14.9876 7.02925 13.9131 8.35474 13.9131H13.5063C13.8015 13.9131 14.1805 14.0248 14.5814 14.2395C14.976 14.4508 15.3457 14.7375 15.6168 15.0286C15.8931 15.3254 15.9985 15.5523 16.0166 15.6602C15.9974 15.6703 15.966 15.6838 15.9171 15.6975C15.7443 15.7462 15.4726 15.8258 15.1429 16.1098C15.0141 16.2207 14.8577 16.3351 14.6674 16.472C14.6533 16.4821 14.639 16.4924 14.6246 16.5028C14.4514 16.6273 14.2561 16.7677 14.0649 16.9212C13.6509 17.2536 13.204 17.6868 12.9312 18.2879C12.7336 18.7235 12.4636 18.9074 12.274 18.9074Z" stroke="#FFA438" stroke-width="1.2"/>
<path fill-rule="evenodd" clip-rule="evenodd" d="M1.63501 5.79114C1.63501 4.13428 2.97816 2.79114 4.63501 2.79114H19.1187C20.7756 2.79114 22.1187 4.13428 22.1187 5.79114V8.95916H20.9187V5.79114C20.9187 4.79703 20.1128 3.99114 19.1187 3.99114H4.63501C3.6409 3.99114 2.83501 4.79703 2.83501 5.79114V16.4579C2.83501 17.452 3.6409 18.2579 4.63501 18.2579H8.87898V19.4579H4.63501C2.97816 19.4579 1.63501 18.1147 1.63501 16.4579V5.79114Z" fill="#FFA438"/>
<path d="M13.1549 8.95105C13.1549 10.3036 12.0584 11.4 10.7059 11.4C9.35341 11.4 8.25698 10.3036 8.25698 8.95105C8.25698 7.59853 9.35341 6.5021 10.7059 6.5021C12.0584 6.5021 13.1549 7.59853 13.1549 8.95105Z" stroke="#FFA438" stroke-width="1.2"/>
</svg>
