<svg width="24" height="24" viewBox="0 0 24 24" fill="none" xmlns="http://www.w3.org/2000/svg">
<path fill-rule="evenodd" clip-rule="evenodd" d="M2.47949 3.13049C2.47949 2.30206 3.15107 1.63049 3.97949 1.63049H17.8878C18.7163 1.63049 19.3878 2.30207 19.3878 3.13049V12.8501C19.3878 13.2643 19.0521 13.6001 18.6378 13.6001C18.2236 13.6001 17.8878 13.2643 17.8878 12.8501L17.8878 3.13049L3.97949 3.13049V20.7626H12.1066C12.5209 20.7626 12.8566 21.0984 12.8566 21.5126C12.8566 21.9268 12.5209 22.2626 12.1066 22.2626H3.97949C3.15107 22.2626 2.47949 21.5911 2.47949 20.7626V3.13049Z" fill="#FFA438"/>
<path fill-rule="evenodd" clip-rule="evenodd" d="M6.21021 7.02087C6.21021 6.60666 6.54599 6.27087 6.96021 6.27087H14.907C15.3212 6.27087 15.657 6.60666 15.657 7.02087C15.657 7.43509 15.3212 7.77087 14.907 7.77087H6.96021C6.54599 7.77087 6.21021 7.43509 6.21021 7.02087Z" fill="#FFA438"/>
<path fill-rule="evenodd" clip-rule="evenodd" d="M6.21021 10.0209C6.21021 9.60666 6.54599 9.27087 6.96021 9.27087H14.907C15.3212 9.27087 15.657 9.60666 15.657 10.0209C15.657 10.4351 15.3212 10.7709 14.907 10.7709H6.96021C6.54599 10.7709 6.21021 10.4351 6.21021 10.0209Z" fill="#FFA438"/>
<path fill-rule="evenodd" clip-rule="evenodd" d="M6.21021 13.0209C6.21021 12.6067 6.54599 12.2709 6.96021 12.2709H10.6567C11.0709 12.2709 11.4067 12.6067 11.4067 13.0209C11.4067 13.4351 11.0709 13.7709 10.6567 13.7709H6.96021C6.54599 13.7709 6.21021 13.4351 6.21021 13.0209Z" fill="#FFA438"/>
<path fill-rule="evenodd" clip-rule="evenodd" d="M21.2044 14.5896C21.5422 14.8292 21.6219 15.2973 21.3823 15.6352L17.3196 21.3642C16.7998 22.0972 15.7566 22.2118 15.09 21.6092L12.3293 19.1132C12.022 18.8354 11.9982 18.3611 12.2759 18.0539C12.5537 17.7466 13.028 17.7228 13.3353 18.0005L16.096 20.4965L20.1587 14.7675C20.3983 14.4296 20.8665 14.35 21.2044 14.5896Z" fill="#FFA438"/>
</svg>
