<svg width="19" height="19" viewBox="0 0 19 19" fill="none" xmlns="http://www.w3.org/2000/svg">
<path d="M9.85129 6.5927C8.21253 6.5927 6.87518 7.93005 6.87518 9.5688C6.87518 11.2076 8.21253 12.5449 9.85129 12.5449C11.49 12.5449 12.8274 11.2076 12.8274 9.5688C12.8274 7.93005 11.49 6.5927 9.85129 6.5927ZM18.7774 9.5688C18.7774 8.33639 18.7885 7.11513 18.7193 5.88495C18.6501 4.45606 18.3241 3.18792 17.2793 2.14305C16.2322 1.09594 14.9663 0.772211 13.5374 0.703C12.305 0.633788 11.0837 0.644951 9.85352 0.644951C8.6211 0.644951 7.39985 0.633788 6.16967 0.703C4.74078 0.772211 3.47265 1.09818 2.42777 2.14305C1.38067 3.19016 1.05693 4.45606 0.987721 5.88495C0.918509 7.11737 0.929673 8.33862 0.929673 9.5688C0.929673 10.799 0.918509 12.0225 0.987721 13.2527C1.05693 14.6815 1.3829 15.9497 2.42777 16.9946C3.47488 18.0417 4.74078 18.3654 6.16967 18.4346C7.40209 18.5038 8.62334 18.4927 9.85352 18.4927C11.0859 18.4927 12.3072 18.5038 13.5374 18.4346C14.9663 18.3654 16.2344 18.0394 17.2793 16.9946C18.3264 15.9474 18.6501 14.6815 18.7193 13.2527C18.7908 12.0225 18.7774 10.8012 18.7774 9.5688ZM9.85129 14.1479C7.31725 14.1479 5.27215 12.1028 5.27215 9.5688C5.27215 7.03476 7.31725 4.98966 9.85129 4.98966C12.3853 4.98966 14.4304 7.03476 14.4304 9.5688C14.4304 12.1028 12.3853 14.1479 9.85129 14.1479ZM14.618 5.87155C14.0263 5.87155 13.5485 5.39377 13.5485 4.80212C13.5485 4.21047 14.0263 3.73269 14.618 3.73269C15.2096 3.73269 15.6874 4.21047 15.6874 4.80212C15.6876 4.94261 15.66 5.08175 15.6064 5.21158C15.5527 5.34141 15.4739 5.45938 15.3746 5.55872C15.2752 5.65806 15.1573 5.73683 15.0274 5.79051C14.8976 5.84419 14.7585 5.87173 14.618 5.87155Z" fill="#2F93E1"/>
</svg>
