<svg width="11" height="18" viewBox="0 0 11 18" fill="none" xmlns="http://www.w3.org/2000/svg">
<path d="M5.32076 9.12411C2.84905 9.12411 0.794691 7.13006 0.794691 4.77052C0.794691 2.32938 2.84905 0.334473 5.32164 0.334473C7.87822 0.334473 9.84771 2.32853 9.84771 4.77052C9.84331 5.92908 9.36557 7.03855 8.51949 7.85507C7.67341 8.67159 6.52823 9.12835 5.33564 9.12496L5.32076 9.12411ZM5.32076 2.89886C4.27433 2.89886 3.47814 3.75309 3.47814 4.77137C3.47814 5.78794 4.27433 6.56143 5.32164 6.56143C6.41094 6.56143 7.16514 5.78794 7.16514 4.77137C7.16602 3.75224 6.41094 2.89886 5.32076 2.89886ZM7.12314 12.7467L9.6806 15.1479C10.1837 15.6758 10.1837 16.4492 9.6806 16.938C9.13638 17.4658 8.29732 17.4658 7.87822 16.938L5.32164 14.496L2.84905 16.938C2.59795 17.1819 2.26197 17.3035 1.88399 17.3035C1.59089 17.3035 1.25578 17.1811 0.961805 16.938C0.458713 16.4492 0.458713 15.6758 0.961805 15.1471L3.56038 12.7459C2.62195 12.4759 1.72172 12.0936 0.880435 11.6078C0.251352 11.2822 0.126235 10.4688 0.461338 9.85765C0.880435 9.24736 1.63463 9.08502 2.30571 9.49216C3.21443 10.0309 4.25839 10.3159 5.32295 10.3159C6.38751 10.3159 7.43148 10.0309 8.34019 9.49216C9.01127 9.08502 9.80659 9.24736 10.1837 9.85765C10.5617 10.4688 10.3928 11.2814 9.80571 11.6078C9.01039 12.0965 8.0882 12.4628 7.12402 12.7476L7.12314 12.7467Z" fill="#2F93E1"/>
</svg>
