<svg width="16" height="18" viewBox="0 0 16 18" fill="none" xmlns="http://www.w3.org/2000/svg">
<path d="M8.38244 0.348817C9.28941 0.334473 10.1912 0.342973 11.0919 0.334473C11.1465 1.41877 11.528 2.52326 12.3045 3.28987C13.0794 4.0756 14.1756 4.43526 15.2421 4.55692V7.40925C14.2426 7.37578 13.2385 7.16328 12.3315 6.72339C11.9365 6.54064 11.5685 6.30529 11.2083 6.06463C11.2036 8.13442 11.2166 10.2015 11.1953 12.2628C11.1413 13.2531 10.8216 14.2386 10.2582 15.0546C9.35178 16.413 7.77849 17.2986 6.16259 17.3263C5.17143 17.3842 4.1813 17.1079 3.33671 16.599C1.93702 15.7553 0.952093 14.211 0.808642 12.5534C0.790573 12.2024 0.787798 11.8507 0.800326 11.4994C0.925066 10.1516 1.57735 8.86224 2.58983 7.98513C3.73744 6.96352 5.34502 6.47689 6.85022 6.76483C6.86425 7.81407 6.82319 8.86224 6.82319 9.91148C6.13556 9.6841 5.33203 9.74785 4.7312 10.1745C4.29162 10.4705 3.95942 10.9059 3.78577 11.4139C3.64232 11.773 3.68338 12.172 3.6917 12.5534C3.85646 13.7158 4.95001 14.6928 6.11737 14.5871C6.89128 14.5786 7.63296 14.1196 8.03629 13.4475C8.16675 13.2122 8.3128 12.9715 8.32059 12.6947C8.38868 11.4277 8.36165 10.166 8.36997 8.8989C8.37569 6.04338 8.36165 3.19583 8.38296 0.349348L8.38244 0.348817Z" fill="#2F93E1"/>
</svg>
