<svg width="20" height="17" viewBox="0 0 20 17" fill="none" xmlns="http://www.w3.org/2000/svg">
<path d="M19.5653 2.15316C18.8776 2.47688 18.1389 2.6956 17.3623 2.79447C18.1636 2.28509 18.7631 1.4834 19.0489 0.538969C18.2961 1.01403 17.4721 1.34842 16.6129 1.52761C16.0351 0.872189 15.2697 0.437766 14.4357 0.291786C13.6017 0.145807 12.7456 0.296438 12.0004 0.720295C11.2552 1.14415 10.6626 1.81752 10.3145 2.63585C9.9665 3.45418 9.8825 4.3717 10.0756 5.24594C8.55014 5.16458 7.05783 4.74336 5.69553 4.00962C4.33323 3.27589 3.13137 2.24605 2.16795 0.986919C1.83854 1.5906 1.64912 2.29052 1.64912 3.03594C1.64876 3.70699 1.80431 4.36775 2.10197 4.95962C2.39964 5.55148 2.83021 6.05614 3.3555 6.42881C2.74631 6.40822 2.15056 6.23335 1.61783 5.91875V5.97124C1.61777 6.91241 1.92421 7.82461 2.48517 8.55307C3.04612 9.28153 3.82704 9.78138 4.6954 9.9678C4.13027 10.1303 3.53778 10.1542 2.96267 10.0378C3.20767 10.8476 3.68491 11.5558 4.32758 12.0631C4.97025 12.5705 5.74617 12.8516 6.54672 12.8672C5.18774 14.0006 3.50941 14.6154 1.78171 14.6127C1.47567 14.6127 1.16989 14.5938 0.865936 14.5558C2.61965 15.7537 4.66109 16.3894 6.74602 16.387C13.8038 16.387 17.6621 10.1769 17.6621 4.791C17.6621 4.61602 17.6579 4.43928 17.6505 4.2643C18.401 3.68772 19.0488 2.97373 19.5636 2.15579L19.5653 2.15316Z" fill="#2F93E1"/>
</svg>
