<svg width="20" height="13" viewBox="0 0 20 13" fill="none" xmlns="http://www.w3.org/2000/svg">
<path d="M18.724 2.45921C18.6182 2.0989 18.412 1.77269 18.1273 1.51526C17.8346 1.24992 17.4759 1.06012 17.085 0.963763C15.6219 0.595849 9.76048 0.595849 9.76048 0.595849C7.31691 0.569324 4.87394 0.685988 2.44536 0.945182C2.05443 1.04865 1.69637 1.2427 1.40301 1.51006C1.11477 1.77466 0.905989 2.10095 0.796924 2.45846C0.53493 3.80506 0.407635 5.17237 0.416756 6.54194C0.407407 7.91029 0.53439 9.27715 0.796924 10.6254C0.903652 10.9814 1.11165 11.3063 1.40068 11.5686C1.6897 11.831 2.04961 12.0205 2.44536 12.1209C3.92786 12.488 9.76048 12.488 9.76048 12.488C12.2072 12.5146 14.6532 12.3979 17.085 12.1387C17.4759 12.0423 17.8346 11.8525 18.1273 11.5872C18.4155 11.3248 18.6204 10.9985 18.7233 10.6433C18.9921 9.29718 19.1228 7.92931 19.1136 6.55904C19.1338 5.18297 19.0032 3.80865 18.724 2.45846V2.45921ZM7.89704 9.08687V3.99776L12.7738 6.54269L7.89704 9.08687Z" fill="#2F93E1"/>
</svg>
